<?xml version="1.0" encoding="utf-8"?>
<!-- Generator: Adobe Illustrator 25.4.1, SVG Export Plug-In . SVG Version: 6.00 Build 0)  -->
<svg version="1.1" id="Capa_1" xmlns="http://www.w3.org/2000/svg" xmlns:xlink="http://www.w3.org/1999/xlink" x="0px" y="0px"
	 viewBox="0 0 300 300" style="enable-background:new 0 0 300 300;" xml:space="preserve">
<style type="text/css">
	.st0{fill:#D92D16;}
	.st1{fill:#5D5760;}
	.st2{fill:#1A1A20;}
	.st3{fill:none;stroke:#1A1A20;stroke-miterlimit:10;}
	.st4{fill:#821B0D;}
	.st5{fill:#AD2411;}
	.st6{fill:#E05744;}
	.st7{fill:#E88173;}
	.st8{fill:#FFFFFF;}
</style>
<g id="icon" transform="translate(-35 -353)">
	<circle id="bg_copy" class="st4" cx="185.15" cy="502.93" r="143.61"/>
</g>
<path id="Trazado_1029" class="st8" d="M229.75,189.72c11.94-6.12,19.46-18.41,19.48-31.83c0-2.2-1.78-3.98-3.98-3.98l0,0
	c-10.83,0-21.07,4.91-27.85,13.35v-9.37c0-46.15-37.41-83.55-83.55-83.55c-46.15,0-83.55,37.41-83.55,83.55l0,0v23.87
	c0.01,6.59,5.35,11.93,11.93,11.93h147.45c2.04,18.11,17.35,31.81,35.58,31.83c2.2,0,3.98-1.78,3.98-3.98l0,0
	C249.21,208.12,241.7,195.84,229.75,189.72z M240.94,162.2c-1.89,11.94-11.26,21.31-23.2,23.2
	C219.63,173.46,229,164.09,240.94,162.2z M58.25,181.76v-23.88c0.01-41.75,33.86-75.59,75.61-75.59
	c41.74,0.01,75.58,33.84,75.59,75.59v27.85H62.25C60.04,185.74,58.26,183.96,58.25,181.76C58.25,181.76,58.25,181.76,58.25,181.76
	L58.25,181.76z M217.74,194.03c11.94,1.89,21.31,11.26,23.2,23.2C229,215.34,219.63,205.97,217.74,194.03L217.74,194.03z"/>
<path id="Trazado_1030" class="st8" d="M133.84,102.19c-16.82,0-30.5,11.4-30.5,25.41c0.22,7.75,4.17,14.92,10.61,19.24v10.77
	c-0.08,4.48,3.48,8.17,7.96,8.26h23.87c4.48-0.09,8.03-3.79,7.96-8.26v-10.77c6.44-4.32,10.4-11.49,10.61-19.24
	C164.35,113.57,150.67,102.19,133.84,102.19z M147.69,141.31c-1.19,0.72-1.91,2.01-1.91,3.4v13.18l-7.96-0.1v-7.86
	c0-2.2-1.78-3.98-3.98-3.98c-2.2,0-3.98,1.78-3.98,3.98v7.76l-7.96-0.1v-12.88c0-1.39-0.72-2.68-1.91-3.4
	c-5.13-2.7-8.44-7.92-8.7-13.71c0-9.62,10.11-17.44,22.55-17.44s22.55,7.83,22.55,17.44c-0.27,5.78-3.58,10.99-8.7,13.69V141.31z"/>
</svg>
