<?xml version="1.0" encoding="utf-8"?>
<!-- Generator: Adobe Illustrator 25.4.1, SVG Export Plug-In . SVG Version: 6.00 Build 0)  -->
<svg version="1.1" id="Capa_1" xmlns="http://www.w3.org/2000/svg" xmlns:xlink="http://www.w3.org/1999/xlink" x="0px" y="0px"
	 viewBox="0 0 300 300" style="enable-background:new 0 0 300 300;" xml:space="preserve">
<style type="text/css">
	.st0{fill:#D92D16;}
	.st1{fill:#5D5760;}
	.st2{fill:#1A1A20;}
	.st3{fill:none;stroke:#1A1A20;stroke-miterlimit:10;}
	.st4{fill:#821B0D;}
	.st5{fill:#AD2411;}
	.st6{fill:#E05744;}
	.st7{fill:#E88173;}
	.st8{fill:#FFFFFF;}
</style>
<g id="icon_00000065776170438178079420000008848990363722798466_" transform="translate(-35 -353)">
	<circle id="bg_copy_00000070083170119956419590000005159206333843839384_" class="st5" cx="184.64" cy="502.93" r="143.61"/>
</g>
<path id="Trazado_1032" class="st8" d="M149.64,57.57c-50.5,0-91.44,40.94-91.44,91.44s40.94,91.44,91.44,91.44
	s91.44-40.94,91.44-91.44l0,0C241,98.54,200.11,57.64,149.64,57.57z M149.64,231.74c-45.69,0-82.74-37.04-82.74-82.74
	s37.04-82.74,82.74-82.74s82.74,37.04,82.74,82.74l0,0C232.33,194.68,195.31,231.69,149.64,231.74z"/>
<path id="Trazado_1033" class="st8" d="M149.65,79.34c-38.48,0-69.67,31.19-69.67,69.67s31.19,69.67,69.67,69.67
	s69.67-31.19,69.67-69.67C219.28,110.55,188.11,79.38,149.65,79.34z M206.26,153.34h4.13c-0.93,13.12-6.1,25.58-14.73,35.5
	l-2.93-2.93c-1.72-1.68-4.48-1.65-6.15,0.07c-1.65,1.69-1.65,4.39,0,6.08l2.93,2.93c-9.92,8.63-22.39,13.8-35.5,14.73v-4.13
	c0-2.41-1.95-4.36-4.36-4.36c-2.41,0-4.36,1.95-4.36,4.36v4.13c-13.12-0.93-25.58-6.09-35.5-14.73l2.93-2.93
	c1.68-1.72,1.65-4.48-0.07-6.15c-1.69-1.65-4.39-1.65-6.08,0l-2.93,2.93c-8.63-9.92-13.8-22.39-14.73-35.5h4.14
	c2.41,0,4.36-1.95,4.36-4.36s-1.95-4.36-4.36-4.36h-4.14c0.93-13.12,6.1-25.58,14.73-35.5l2.93,2.93c1.72,1.68,4.48,1.65,6.15-0.07
	c1.65-1.69,1.65-4.39,0-6.08l-2.93-2.93c9.92-8.63,22.38-13.8,35.5-14.73v4.13c0,2.41,1.95,4.36,4.36,4.36
	c2.41,0,4.36-1.95,4.36-4.36v-4.13c13.12,0.93,25.58,6.1,35.5,14.73l-2.93,2.93c-1.68,1.72-1.65,4.48,0.07,6.15
	c1.69,1.65,4.39,1.65,6.08,0l2.93-2.93c8.63,9.92,13.8,22.39,14.73,35.5h-4.13c-2.41,0-4.36,1.95-4.36,4.36
	S203.85,153.34,206.26,153.34z"/>
<path id="Trazado_1034" class="st8" d="M164.59,157.81c4.91-8.15,2.28-18.73-5.87-23.63c-1.47-0.88-3.06-1.55-4.73-1.96v-22.39
	c0-2.41-1.95-4.36-4.36-4.36c-2.41,0-4.36,1.95-4.36,4.36v22.39c-9.3,2.38-14.91,11.84-12.53,21.14
	c1.97,7.71,8.93,13.09,16.88,13.07c3.1-0.02,6.14-0.87,8.79-2.47l16.43,16.43c1.72,1.68,4.48,1.65,6.15-0.07
	c1.65-1.69,1.65-4.39,0-6.08L164.59,157.81z M140.93,149.01c0-4.81,3.9-8.71,8.71-8.71c4.81,0,8.71,3.9,8.71,8.71
	c0,4.81-3.9,8.71-8.71,8.71c0,0,0,0,0,0C144.84,157.72,140.94,153.82,140.93,149.01L140.93,149.01z"/>
</svg>
