<?xml version="1.0" encoding="utf-8"?>
<!-- Generator: Adobe Illustrator 25.4.1, SVG Export Plug-In . SVG Version: 6.00 Build 0)  -->
<svg version="1.1" id="Capa_1" xmlns="http://www.w3.org/2000/svg" xmlns:xlink="http://www.w3.org/1999/xlink" x="0px" y="0px"
	 viewBox="0 0 300 300" style="enable-background:new 0 0 300 300;" xml:space="preserve">
<style type="text/css">
	.st0{fill:#D92D16;}
	.st1{fill:#5D5760;}
	.st2{fill:#1A1A20;}
	.st3{fill:none;stroke:#1A1A20;stroke-miterlimit:10;}
	.st4{fill:#821B0D;}
	.st5{fill:#AD2411;}
	.st6{fill:#E05744;}
	.st7{fill:#E88173;}
	.st8{fill:#FFFFFF;}
</style>
<g id="icon_00000176038089829999327370000005968845664502935198_" transform="translate(-35 -353)">
	<circle id="bg_copy_00000153665808448254314580000009949467820576771986_" class="st6" cx="186" cy="502.93" r="143.61"/>
</g>
<path id="Trazado_1035" class="st8" d="M226.69,211.97L200.46,80.44c-1.02-5.11-5.5-8.8-10.71-8.81h-75.48
	c-5.21,0.02-9.69,3.7-10.71,8.81L77.32,211.97c-1.19,5.93,2.64,11.7,8.57,12.9c0.71,0.14,1.42,0.21,2.14,0.22h127.91
	c6.05,0.01,10.95-4.89,10.96-10.94C226.9,213.41,226.83,212.68,226.69,211.97z M215.97,217.77H88.04c-2.01,0-3.65-1.64-3.64-3.65
	c0-0.24,0.02-0.49,0.07-0.72L110.7,81.87c0.34-1.7,1.83-2.93,3.57-2.94h75.48c1.74,0.01,3.23,1.23,3.57,2.94l26.23,131.53
	c0.4,1.98-0.88,3.91-2.86,4.31c-0.25,0.05-0.5,0.07-0.75,0.07L215.97,217.77z"/>
<path id="Trazado_1036" class="st8" d="M152.01,82.59c-2.01,0-3.65,1.63-3.65,3.65c0,0,0,0.01,0,0.01v14.62
	c0,2.01,1.63,3.64,3.64,3.64s3.64-1.63,3.64-3.64V86.25C155.66,84.23,154.03,82.6,152.01,82.59z"/>
<path id="Trazado_1037" class="st8" d="M152.01,119.13c-2.01,0-3.65,1.63-3.65,3.65c0,0,0,0.01,0,0.01v14.62
	c0,2.01,1.63,3.64,3.64,3.64s3.64-1.63,3.64-3.64v-14.62C155.66,120.77,154.03,119.13,152.01,119.13z"/>
<path id="Trazado_1038" class="st8" d="M152.01,155.66c-2.01,0-3.65,1.63-3.65,3.65c0,0,0,0.01,0,0.01v14.62
	c0,2.01,1.63,3.64,3.64,3.64s3.64-1.63,3.64-3.64v-14.62C155.66,157.3,154.03,155.67,152.01,155.66z"/>
<path id="Trazado_1039" class="st8" d="M152.01,192.2c-2.01,0-3.65,1.63-3.65,3.65c0,0,0,0.01,0,0.01v14.62
	c0,2.01,1.63,3.64,3.64,3.64s3.64-1.63,3.64-3.64v-14.62C155.66,193.84,154.03,192.2,152.01,192.2z"/>
</svg>
