<?xml version="1.0" encoding="utf-8"?>
<!-- Generator: Adobe Illustrator 25.4.1, SVG Export Plug-In . SVG Version: 6.00 Build 0)  -->
<svg version="1.1" id="Capa_1" xmlns="http://www.w3.org/2000/svg" xmlns:xlink="http://www.w3.org/1999/xlink" x="0px" y="0px"
	 viewBox="0 0 300 300" style="enable-background:new 0 0 300 300;" xml:space="preserve">
<style type="text/css">
	.st0{fill:#D92D16;}
	.st1{fill:#5D5760;}
	.st2{fill:#1A1A20;}
	.st3{fill:none;stroke:#1A1A20;stroke-miterlimit:10;}
	.st4{fill:#821B0D;}
	.st5{fill:#AD2411;}
	.st6{fill:#E05744;}
	.st7{fill:#E88173;}
	.st8{fill:#FFFFFF;}
</style>
<g id="icon_00000100354316880739838940000017754659487668068762_" transform="translate(-35 -353)">
	<circle id="bg_copy_00000111192864459083512690000013354480805901660304_" class="st7" cx="186.3" cy="502.93" r="143.61"/>
</g>
<path id="Trazado_1040" class="st8" d="M237.7,210.65L174.53,100.1c-1.1-1.69-3.37-2.16-5.05-1.06c-0.42,0.28-0.78,0.64-1.06,1.06
	l-7.07,12.41l-17.13-29.98c-0.63-1.1-1.79-1.77-3.05-1.77c-2.04,0-2.04,0-14.5,21.8L64.88,210.68c-0.96,1.69-0.38,3.84,1.31,4.8
	c0.53,0.3,1.13,0.46,1.74,0.46h166.71c1.94,0.01,3.52-1.56,3.53-3.51C238.18,211.81,238.01,211.19,237.7,210.65z M178.05,208.88
	l-41.67-72.91c-0.94-1.7-3.08-2.33-4.78-1.39c-1.7,0.94-2.33,3.07-1.39,4.78c0.02,0.03,0.04,0.07,0.06,0.1l39.67,69.42H74
	l67.17-117.54l41.18,72.05c0.94,1.7,3.08,2.33,4.78,1.39c1.7-0.94,2.33-3.07,1.39-4.78c-0.02-0.03-0.04-0.07-0.06-0.1l-23.05-40.34
	l6.07-10.64l57.12,99.94L178.05,208.88z"/>
</svg>
