<?xml version="1.0" encoding="utf-8"?>
<!-- Generator: Adobe Illustrator 25.4.1, SVG Export Plug-In . SVG Version: 6.00 Build 0)  -->
<svg version="1.1" id="Capa_1" xmlns="http://www.w3.org/2000/svg" xmlns:xlink="http://www.w3.org/1999/xlink" x="0px" y="0px"
	 viewBox="0 0 200 200" style="enable-background:new 0 0 200 200;" xml:space="preserve">
<style type="text/css">
	.st0{fill:none;}
	.st1{fill:#D92D16;}
	.st2{fill:#FFFFFF;}
</style>
<g transform="matrix(1, 0, 0, 1, 0, 0)">
	<path id="Your_image_here-2" class="st1" d="M100,24.85c41.5,0,75.14,33.64,75.14,75.14c-0.02,9.87-1.95,19.64-5.7,28.77
		c-15.89,38.34-59.85,56.54-98.19,40.65S14.71,109.56,30.6,71.22C42.23,43.16,69.62,24.86,100,24.85z"/>
</g>
<g>
	<path class="st2" d="M112.88,61.99c-0.59-0.19-1.17-0.33-1.75-0.43c-0.58-0.1-1.15-0.15-1.71-0.15c0,8.64,0,17.28,0,26.67
		c4.1-1.6,7.69-3.03,11.31-4.4c3.47-1.32,6.91-2.09,9.98,0.87C130.02,75.37,121.1,64.58,112.88,61.99z"/>
	<path class="st2" d="M84.89,61.99c0.59-0.19,1.18-0.33,1.76-0.43c0.58-0.1,1.15-0.15,1.72-0.15c0,8.64,0,17.28,0,26.67
		c-4.11-1.6-7.71-3.03-11.34-4.4c-3.48-1.32-6.93-2.09-10.01,0.87C67.68,75.37,76.64,64.58,84.89,61.99z"/>
	<path class="st2" d="M66.88,104.05c-0.38,7.82,2.73,13.47,6.37,15.87l0.45-7.47C70.57,110.63,68.13,107.76,66.88,104.05z"/>
	<path class="st2" d="M123.78,112.45l0.45,7.47c3.64-2.4,6.75-8.05,6.37-15.87C129.35,107.76,126.91,110.63,123.78,112.45z"/>
	<path class="st2" d="M94.94,61.42H94.8c-0.75,0-1.35,0.6-1.35,1.35v23.97c0,0.75,0.6,1.35,1.35,1.35h0.14
		c0.75,0,1.35-0.6,1.35-1.35V62.77C96.29,62.02,95.68,61.42,94.94,61.42z"/>
	<path class="st2" d="M102.92,61.42h-0.14c-0.75,0-1.35,0.6-1.35,1.35v23.97c0,0.75,0.6,1.35,1.35,1.35h0.14
		c0.75,0,1.35-0.6,1.35-1.35V62.77C104.27,62.02,103.66,61.42,102.92,61.42z"/>
	<path class="st2" d="M117.48,125.33c-3.85,0-7.54,1.9-10.26,5.3l-5.33,6.63l-3.12,9.35l-2.91-8.74l-5.77-7.17
		c-2.67-3.32-6.29-5.37-10.06-5.37h-2.49l21.15,26.65l21.3-26.65H117.48z"/>
	<path class="st2" d="M102.77,129.28C102.77,129.28,102.77,129.28,102.77,129.28c0-2.21-1.79-4-4-4c-2.21,0-4,1.79-4,4c0,0,0,0,0,0
		v0c0,0.9,0.3,1.72,0.8,2.39l3.21,9.62l3.21-9.62C102.48,131,102.77,130.18,102.77,129.28L102.77,129.28L102.77,129.28z
		 M98.79,131.23c-1.1,0-1.98-0.89-1.98-1.98c0-1.1,0.89-1.98,1.98-1.98c1.1,0,1.98,0.89,1.98,1.98
		C100.78,130.34,99.89,131.23,98.79,131.23z"/>
	<path class="st2" d="M130.47,91.01L130.47,91.01c0.11-0.96,0.19-1.94,0.23-2.93c-0.75,0.37-12.29,9.79-30.32,9.79H97
		c-17.17,0-27.47-8.34-30.04-9.6c-0.06,0.65-0.09,1.32-0.11,1.99c0.03,0.25,0.05,0.51,0.08,0.76c-1.33,0.15-2.36,1.27-2.36,2.63v0
		c0,1.46,1.19,2.65,2.65,2.65h0.78c3.89,13.5,15.98,23.69,30.68,23.69c14.18,0,26.73-9.83,30.71-23.69h1.07
		c1.46,0,2.65-1.19,2.65-2.65v0C133.12,92.2,131.93,91.01,130.47,91.01z"/>
	<g id="XMLID_00000114060647631612779880000014235824721793990026_">
		<path id="XMLID_00000157991659952937498950000003009648566253378747_" class="st2" d="M133.53,59.88
			c-1.45-1.45-3.38-2.25-5.43-2.25c-0.81,0-1.46,0.65-1.46,1.46c0,0.81,0.65,1.46,1.46,1.46c1.27,0,2.47,0.5,3.37,1.4
			c0.9,0.9,1.4,2.1,1.4,3.37c0,0.4,0.16,0.77,0.43,1.03c0.26,0.26,0.63,0.43,1.03,0.43c0.81,0,1.46-0.65,1.46-1.46
			C135.78,63.26,134.98,61.33,133.53,59.88z"/>
		<path id="XMLID_00000001664026810340750650000005667249173412231815_" class="st2" d="M136.93,56.49
			c-2.36-2.36-5.49-3.66-8.83-3.66c-0.8,0-1.46,0.65-1.46,1.46c0,0.81,0.65,1.46,1.46,1.46c2.56,0,4.96,1,6.77,2.8
			c1.81,1.81,2.8,4.21,2.8,6.76c0,0.4,0.16,0.77,0.43,1.03c0.26,0.26,0.63,0.43,1.03,0.43c0.8,0,1.46-0.65,1.46-1.46
			C140.58,61.98,139.28,58.84,136.93,56.49z"/>
		<path id="XMLID_00000162327130075026734810000011314894146254547645_" class="st2" d="M145.39,65.31c0-4.62-1.8-8.96-5.06-12.23
			c-3.27-3.27-7.61-5.06-12.23-5.06c-0.81,0-1.46,0.65-1.46,1.46c0,0.4,0.16,0.77,0.43,1.03c0.26,0.26,0.63,0.43,1.03,0.43
			c3.84,0,7.45,1.5,10.17,4.21c2.72,2.72,4.21,6.33,4.21,10.17c0,0.8,0.65,1.46,1.46,1.46C144.74,66.77,145.39,66.12,145.39,65.31z"
			/>
	</g>
</g>
</svg>
