<svg xmlns="http://www.w3.org/2000/svg" viewBox="0 0 186.25 270.4"><defs><style>.cls-1{isolation:isolate;font-size:59.05px;font-family:Poppins-BoldItalic, Poppins;font-weight:700;font-style:italic;}.cls-1,.cls-2{fill:#5d5760;}</style></defs><g id="Capa_2" data-name="Capa 2"><g id="Capa_1-2" data-name="Capa 1"><g id="_A_Rodar_" data-name=" A Rodar "><text class="cls-1" transform="translate(9.9 234.62)">Inicio</text></g><path class="cls-2" d="M186.25,106.43V13.3A13.32,13.32,0,0,0,173,0H66.52A66.59,66.59,0,0,0,0,66.52V128.6a22.19,22.19,0,0,0,22.17,22.17h9.32A22.09,22.09,0,0,0,71,159.5a22.09,22.09,0,0,0,39.46-8.73H173a13.31,13.31,0,0,0,13.3-13.3v-31Zm-133,53.21a13.31,13.31,0,1,1,13.31-13.3A13.32,13.32,0,0,1,53.21,159.64Zm35.48,0a13.31,13.31,0,1,1,13.3-13.3A13.31,13.31,0,0,1,88.69,159.64Zm35.48-17.74V48.78a4.44,4.44,0,0,1,4.43-4.44h26.61a4.44,4.44,0,0,1,4.43,4.44V141.9Zm53.21-4.43A4.43,4.43,0,0,1,173,141.9h-4.44V48.78a13.31,13.31,0,0,0-13.3-13.3H128.6a13.31,13.31,0,0,0-13.3,13.3V141.9h-4.89A22.1,22.1,0,0,0,71,133.17a22.1,22.1,0,0,0-39.46,8.73H22.17a13.31,13.31,0,0,1-13.3-13.3V66.52A57.71,57.71,0,0,1,66.52,8.87H173a4.44,4.44,0,0,1,4.43,4.43Z"/><path class="cls-2" d="M93.12,35.48H39.91a13.31,13.31,0,0,0-13.3,13.3V66.52a13.31,13.31,0,0,0,13.3,13.3H93.12a13.32,13.32,0,0,0,13.31-13.3V48.78A13.32,13.32,0,0,0,93.12,35.48Zm4.44,31A4.44,4.44,0,0,1,93.12,71H39.91a4.44,4.44,0,0,1-4.43-4.43V48.78a4.44,4.44,0,0,1,4.43-4.44H93.12a4.44,4.44,0,0,1,4.44,4.44Z"/></g></g></svg>