<svg id="Capa_1" data-name="Capa 1" xmlns="http://www.w3.org/2000/svg" viewBox="0 0 142 141.97"><defs><style>.cls-1{fill:#fff;}</style></defs><path id="Icon_awesome-instagram" data-name="Icon awesome-instagram" class="cls-1" d="M101,63.59a36.32,36.32,0,1,0,.16,0Zm0,60.06A23.67,23.67,0,1,1,124.69,100v0A23.72,23.72,0,0,1,101,123.65Zm46.37-61.56a9.76,9.76,0,1,1,0-.08.28.28,0,0,1,0,.08Zm24.11,8.62A42,42,0,0,0,160,41a42.29,42.29,0,0,0-29.75-11.45c-11.72-.66-46.86-.66-58.58,0A42.23,42.23,0,0,0,42,40.94,42.13,42.13,0,0,0,30.5,70.69c-.66,11.72-.66,46.86,0,58.58A42.06,42.06,0,0,0,42,159a42.34,42.34,0,0,0,29.75,11.47c11.72.66,46.86.66,58.58,0A42.06,42.06,0,0,0,160.05,159a42.29,42.29,0,0,0,11.47-29.75c.65-11.73.65-46.83,0-58.56Zm-15.15,71.12a23.93,23.93,0,0,1-13.5,13.5c-9.35,3.71-31.52,2.85-41.85,2.85s-32.53.83-41.85-2.85a24,24,0,0,1-13.5-13.5c-3.71-9.35-2.85-31.52-2.85-41.85S42,67.45,45.65,58.13a23.93,23.93,0,0,1,13.5-13.5c9.35-3.71,31.52-2.85,41.85-2.85s32.53-.83,41.85,2.85a23.9,23.9,0,0,1,13.5,13.5c3.71,9.35,2.85,31.52,2.85,41.85s.87,32.54-2.85,41.85Z" transform="translate(-30.01 -29.01)"/></svg>