<svg xmlns="http://www.w3.org/2000/svg" viewBox="0 0 142.01 141.96"><defs><style>.cls-1{fill:#fff;}</style></defs><g id="Capa_2" data-name="Capa 2"><g id="Capa_1-2" data-name="Capa 1"><path id="Icon_awesome-instagram" data-name="Icon awesome-instagram" class="cls-1" d="M71,34.56a36.32,36.32,0,1,0,.16,0Zm0,60.07A23.67,23.67,0,1,1,94.69,71v0A23.72,23.72,0,0,1,71,94.64ZM117.4,33.07a8.49,8.49,0,1,1,0-.07v.08Zm24.1,8.62A42,42,0,0,0,130,11.94,42.34,42.34,0,0,0,100.29.5C88.57-.17,53.44-.17,41.71.5A42.21,42.21,0,0,0,12,11.92,42.13,42.13,0,0,0,.5,41.66c-.67,11.73-.67,46.86,0,58.58A42,42,0,0,0,12,130a42.33,42.33,0,0,0,29.74,11.47c11.73.66,46.86.66,58.58,0A42,42,0,0,0,130,130a42.35,42.35,0,0,0,11.47-29.75c.66-11.72.66-46.82,0-58.54Zm-15.15,71.12a23.9,23.9,0,0,1-13.5,13.5C103.5,130,81.33,129.17,71,129.17s-32.53.83-41.84-2.86a24,24,0,0,1-13.5-13.49C12,103.47,12.81,81.3,12.81,71S12,38.44,15.66,29.12a24,24,0,0,1,13.5-13.5c9.35-3.71,31.52-2.85,41.85-2.85s32.53-.83,41.85,2.85a23.92,23.92,0,0,1,13.5,13.49c3.71,9.35,2.86,31.53,2.86,41.85s.85,32.54-2.86,41.86Z"/></g></g></svg>