<?xml version="1.0" encoding="utf-8"?>
<!-- Generator: Adobe Illustrator 25.4.1, SVG Export Plug-In . SVG Version: 6.00 Build 0)  -->
<svg version="1.1" id="Capa_1" xmlns="http://www.w3.org/2000/svg" xmlns:xlink="http://www.w3.org/1999/xlink" x="0px" y="0px"
	 viewBox="0 0 160.39 155.3" style="enable-background:new 0 0 160.39 155.3;" xml:space="preserve">
<style type="text/css">
	.st0{fill:#D92D16;}
	.st1{fill-rule:evenodd;clip-rule:evenodd;fill:#FFFFFF;}
</style>
<path class="st1" d="M105.39,80.68v-4.37c0-3.15,2.66-5.81,6.06-5.81h21.8c-0.73-4.36-1.69-8.48-3.39-12.12
	c-2.66-6.53-6.78-12.35-11.87-17.45c-5.08-4.84-10.9-8.72-17.44-11.38c-3.88-1.7-8.24-2.66-12.6-3.39v21.8
	c0,3.14-2.66,5.81-6.06,5.81h-4.36c-3.39,0-6.06-2.67-6.06-5.81v-21.8c-4.36,0.73-8.48,1.69-12.35,3.39
	c-6.78,2.66-12.6,6.54-17.69,11.38c-5.09,5.09-8.96,10.91-11.87,17.45c-1.45,3.64-2.67,7.76-3.39,12.12h22.77
	c3.39,0,6.06,2.66,6.06,5.81v4.37c0,3.35-2.71,6.06-6.06,6.06H26.17c0.73,4.11,1.94,8.23,3.39,12.11
	c2.91,6.53,6.78,12.35,11.87,17.2c5.09,4.84,10.9,8.97,17.69,11.63c3.87,1.45,8,2.66,12.35,3.39v-23.74c0-3.16,2.67-5.82,6.06-5.82
	h4.36c3.39,0,6.06,2.66,6.06,5.82v23.74c4.36-0.73,8.72-1.94,12.6-3.39c6.54-2.66,12.36-6.79,17.44-11.63
	c5.09-4.85,9.21-10.67,11.87-17.2c1.7-3.88,2.67-8,3.39-12.11h-21.8C108.06,86.74,105.39,84.07,105.39,80.68L105.39,80.68z
	 M87.95,12.84c6.3,0.73,12.12,2.19,17.69,4.61c8.24,3.15,15.75,8.24,21.81,14.29c6.3,6.06,11.38,13.33,14.78,21.57
	c2.18,5.32,3.88,11.14,4.6,17.2h7.51c3.33,0,6.06,2.73,6.06,6.06v4.12c0,3.39-2.91,6.06-6.06,6.06h-7.51
	c-0.73,5.81-2.43,11.63-4.6,17.19c-3.39,8-8.48,15.27-14.78,21.33c-6.06,6.29-13.57,11.14-21.81,14.53
	c-5.57,2.19-11.39,3.64-17.69,4.37v5.08c0,3.15-2.66,6.06-6.06,6.06h-4.36c-3.39,0-6.06-2.9-6.06-6.06v-5.08
	c-6.05-0.73-12.11-2.18-17.69-4.37c-8.24-3.39-15.51-8.24-21.8-14.53c-6.3-6.06-11.39-13.33-14.78-21.33
	c-2.18-5.57-3.87-11.38-4.6-17.19H6.06C2.71,86.74,0,84.03,0,80.68v-4.37c0-3.15,2.67-5.81,6.06-5.81h6.54
	c0.73-6.06,2.42-11.88,4.6-17.2c3.39-8.24,8.48-15.51,14.78-21.57c6.3-6.05,13.56-11.14,21.8-14.29c5.58-2.42,11.63-3.88,17.69-4.61
	V6.06c0-3.35,2.71-6.06,6.06-6.06h4.36c3.34,0,6.06,2.71,6.06,6.06V12.84z"/>
</svg>
