<svg xmlns="http://www.w3.org/2000/svg" viewBox="0 0 811.01 348.23"><defs><style>.cls-1{fill:#fff;}</style></defs><g id="Capa_2" data-name="Capa 2"><g id="Capa_1-2" data-name="Capa 1"><path class="cls-1" d="M236.34,43.72A60.25,60.25,0,0,0,224.41,55a123.7,123.7,0,0,0-11.23,16.49,139,139,0,0,0-11.28,26l-21.47,64q-4.29,12.6-4.29,20.43t1.7,12.06a14,14,0,0,0,5.81,7.31l-34.25,4.08a14,14,0,0,1-5.81-7.31q-1.69-4.21-1.69-12t4.28-20.43l16.59-49.31q-1.62,2.06-5.36,7.1L148.83,135q-4.85,6.54-10.17,13.9t-10.25,14q-4.92,6.65-8.72,11.86c-2.54,3.48-4.39,6-5.58,7.47l-25.85,3.09c-.25-2.13-.55-4.82-.88-8.07s-.69-6.78-1.09-10.6-.84-7.75-1.33-11.84-.92-8-1.31-11.68-.72-7-1-10-.55-5.35-.77-7.14c-.17.48-.71,2.1-1.63,4.88s-2.09,6.26-3.52,10.46-3,8.93-4.77,14.19l-5.4,16.14q-2.76,8.25-5.39,16.14T56.45,202Q54.4,208.28,53,212.36c-.93,2.72-1.47,4.32-1.64,4.79L0,223.28a53.14,53.14,0,0,0,11.31-9.35,83,83,0,0,0,10.15-13.39A98,98,0,0,0,31,179.4l15.31-45.76q2.89-8.5,5.66-16.76t5-14.72q2.2-6.48,4.83-14.46L31.88,68.12l77.39-9.24,8.25,76.32,62.42-84.75Z"/><path class="cls-1" d="M291.3,62a25.68,25.68,0,0,1,10.38.63A15.08,15.08,0,0,1,308.84,67a14.17,14.17,0,0,1,3.34,7.35A20.52,20.52,0,0,1,311.12,84l-18.34,54.63a32.86,32.86,0,0,1-5.51,10.1,52,52,0,0,1-8.76,8.71,50.09,50.09,0,0,1-10.8,6.48,40.72,40.72,0,0,1-11.7,3.27l-39.61,4.73a25.89,25.89,0,0,1-10-.59,14.84,14.84,0,0,1-7.25-4.33q-5.87-6.45-2.36-16.91l18.32-54.8a35.33,35.33,0,0,1,5.53-10,50.13,50.13,0,0,1,8.74-8.79A51,51,0,0,1,240.07,70a40,40,0,0,1,11.62-3.25ZM250.53,146.9a17.38,17.38,0,0,0,8.66-3.74,15.71,15.71,0,0,0,5.51-7.28l14.05-42.09q1.39-4.07-.78-6.52t-6.7-1.92L257.34,87a17.45,17.45,0,0,0-8.66,3.75A15.8,15.8,0,0,0,243.16,98L229,140.14q-1.39,4.08.86,6.52t6.78,1.91Z"/><path class="cls-1" d="M407.24,69.12l-26.85,3.21-28,83.36-30.05,3.59,27.85-83.34-26.86,3.2,7.27-21.81,83.94-10Z"/><path class="cls-1" d="M402.92,111.35a34,34,0,0,1,5.51-10.19,51,51,0,0,1,8.65-8.78,48.72,48.72,0,0,1,10.72-6.47,41.13,41.13,0,0,1,11.7-3.27l53.89-6.43L486.11,98,445,102.93a17.57,17.57,0,0,0-8.67,3.73,15.73,15.73,0,0,0-5.52,7.25l-4,12,52-6.21-7.27,21.81-55.23,6.59-26.86,3.21Zm103.92-75-7.27,21.81L417.48,67.9l7.27-21.81Z"/><path class="cls-1" d="M588.87,71a50.48,50.48,0,0,1-19.55,15.27,40.68,40.68,0,0,1-11.53,3.25l-3.86.46,17.33,39.64-30.72,3.67L524.93,98,512,136.64l-30.21,3.61q.38-1.06,1.58-4.62c.79-2.36,1.76-5.2,2.89-8.51s2.38-7,3.71-11,2.68-8,4-12.06,2.64-7.89,3.9-11.61,2.34-7,3.25-9.84Q503,77.1,503.62,75l52.55-6.27a13.11,13.11,0,0,0,6.47-2.82,11.52,11.52,0,0,0,4.12-5.43l1.11-3.53q1-3-.66-4.86c-1.12-1.23-2.79-1.71-5-1.44l-52.37,6.25,7.27-21.81,61.44-7.34a25.32,25.32,0,0,1,10.21.66,15,15,0,0,1,7.15,4.34,14.1,14.1,0,0,1,3.35,7.34,19.65,19.65,0,0,1-1.08,9.5L594.4,60.92A35.49,35.49,0,0,1,588.87,71Z"/><path class="cls-1" d="M686.45,14.86a25.85,25.85,0,0,1,10.38.64A15,15,0,0,1,704,19.84a14.17,14.17,0,0,1,3.34,7.34,20.57,20.57,0,0,1-1.06,9.67L687.93,91.47a32.79,32.79,0,0,1-5.51,10.11,52,52,0,0,1-8.76,8.71,50.09,50.09,0,0,1-10.8,6.48,41,41,0,0,1-11.7,3.27l-39.61,4.72a25.5,25.5,0,0,1-10-.59,14.75,14.75,0,0,1-7.25-4.32q-5.87-6.45-2.36-16.92l18.32-54.79a35.25,35.25,0,0,1,5.53-10,50.13,50.13,0,0,1,8.74-8.79,51,51,0,0,1,10.72-6.47,40.39,40.39,0,0,1,11.62-3.26ZM645.68,99.75A17.4,17.4,0,0,0,654.34,96a15.66,15.66,0,0,0,5.51-7.28l14-42.08q1.4-4.06-.78-6.53t-6.7-1.91l-13.93,1.66a17.36,17.36,0,0,0-8.66,3.75,15.8,15.8,0,0,0-5.52,7.28L624.1,93c-.93,2.71-.64,4.89.86,6.52s3.76,2.26,6.78,1.9Z"/><path class="cls-1" d="M750.36,28.18l-2.63,8q7.93,3.66,16.61,7.9t15.56,7.68a14,14,0,0,1,7.29,8.32q1.84,5.56-.55,12.49L784.91,78l-9.19,27.14-53.38,6.37-30.05,3.59q3.27-9.75,4.89-14.63T699.69,93c.58-1.77,1.08-3.25,1.51-4.43s1.06-3,1.9-5.51l30-3.58-3.37,10.27L752.94,87,757,74.23c-2.28-1.09-5-2.35-8.19-3.78s-6.43-2.91-9.73-4.45-6.52-3-9.65-4.54l-8.12-3.87a9.74,9.74,0,0,1-5.29-5.74,13.08,13.08,0,0,1,.34-8.62L727.58,10,811,0,800,33a17.5,17.5,0,0,0-4-4.81,18.86,18.86,0,0,0-5.48-3.09,17.83,17.83,0,0,0-8.43-.7Z"/><path class="cls-1" d="M186.18,223.59l-12.32,36.54a39.49,39.49,0,0,1-5.71,10.64,54.13,54.13,0,0,1-8.85,9.32,59.15,59.15,0,0,1-11,7.18,47.8,47.8,0,0,1-12.09,4.25l-13.71,40.63-30.21,3.6L106,295.13a24.83,24.83,0,0,1-10.15-1.6,16.63,16.63,0,0,1-7-5,15.15,15.15,0,0,1-3.15-7.88,22.79,22.79,0,0,1,1.34-10.12L99.4,233.94l30-3.58-11.66,34.93q-1.12,3.38.64,5.37t5.46,1.56l8.9-1.06a14,14,0,0,0,7-3.05,12.79,12.79,0,0,0,4.48-6L156,227.19Z"/><path class="cls-1" d="M414.68,173.8a53.72,53.72,0,0,0-11.93,11.29,126.7,126.7,0,0,0-11.3,16.59,138.41,138.41,0,0,0-11.35,26.13,19.2,19.2,0,0,1-.62,1.94,50.68,50.68,0,0,1-5.78,11.51,67.19,67.19,0,0,1-8.78,10.58,75.71,75.71,0,0,1-11.11,9,70.75,70.75,0,0,1-12.56,6.7l14.06,9.39a9.79,9.79,0,0,1,4.22,5.45,11.32,11.32,0,0,1,0,7,2.12,2.12,0,0,0-.41.9c-.07.35-.18.82-.34,1.41q-4.29,12.6-4.29,20.43t1.7,12.05a13.91,13.91,0,0,0,5.81,7.31l-34.25,4.09a14,14,0,0,1-5.81-7.31q-1.69-4.23-1.69-12.06t4.29-20.43a10.77,10.77,0,0,0-4.19-12.27l-14.25-9.53-36.26,4.32,22.66,4.45q-1.26,3.72-3.07,9.22t-3.89,11.62q-2.07,6.12-4.21,12.5t-3.88,11.7q-1.76,5.33-3.07,9.22c-.88,2.6-1.45,4.32-1.69,5.14l-51.37,6.13a52.94,52.94,0,0,0,11.32-9.35,84.17,84.17,0,0,0,10.15-13.39,97.5,97.5,0,0,0,9.56-21.14q5.8-17,10.83-31.94,2.13-6.39,4.27-12.77t4-12.14q1.86-5.76,3.45-10.29c1.06-3,1.88-5.41,2.46-7.19l34.25-4.08-8.4,25.18,19-2.27a26.26,26.26,0,0,0,7.73-2.2,34.9,34.9,0,0,0,7.23-4.35,33.94,33.94,0,0,0,5.86-5.81,21,21,0,0,0,3.63-6.73l5.5-16.66,25.5-11.73-94.51,11.28-29.92-19.58Z"/><path class="cls-1" d="M396.42,301.8a25.2,25.2,0,0,1-10.3-.65,15.09,15.09,0,0,1-7.07-4.35,14,14,0,0,1-3.34-7.26,20.55,20.55,0,0,1,1.07-9.58l26.89-80,30.05-3.59L409,270q-1.39,4.08.86,6.52c1.5,1.64,3.76,2.27,6.78,1.91l19.64-2.34,28-83.36,30.22-3.61L459.2,294.3Z"/><path class="cls-1" d="M579.54,199.92l-26.86,3.21-28,83.36-30,3.59,27.86-83.35-26.86,3.21,7.27-21.81,83.93-10Z"/><path class="cls-1" d="M760.89,157.34l-11,33a17.54,17.54,0,0,0-4-4.81,18.66,18.66,0,0,0-5.47-3.09,17.83,17.83,0,0,0-8.43-.7l-31.72,3.79-2.63,8q7.93,3.66,16.62,8l15.57,7.76a14,14,0,0,1,7.28,8.24q1.84,5.49-.54,12.58-.49,1.59-2.15,6.3T731,246.46q-1.74,5.4-3.3,10.1t-2.08,6.12L618.69,275.44l-1.46-57.88-42,63.07-32.06,3.83,62.21-93.58L594.2,177.23l54-6.45,1.88,80,52.54-6.27,4.27-12.77c-2.27-1-5-2.18-8.18-3.62s-6.42-3-9.74-4.54-6.52-3.11-9.65-4.55-5.83-2.71-8.11-3.8a10.08,10.08,0,0,1-5.37-5.75,12.72,12.72,0,0,1,.4-8.81l6-17.92-11.14-13.48Z"/><polygon class="cls-1" points="472.52 162.69 514.55 157.67 511.83 166.2 469.53 171.46 472.52 162.69"/><polygon class="cls-1" points="523.73 156.57 565.77 151.56 563.05 160.09 520.75 165.35 523.73 156.57"/><polygon class="cls-1" points="574.95 150.46 616.99 145.44 614.26 153.97 571.96 159.24 574.95 150.46"/><polygon class="cls-1" points="626.29 144.34 668.33 139.32 665.61 147.85 623.31 153.11 626.29 144.34"/><polygon class="cls-1" points="677.51 138.22 719.55 133.21 716.83 141.74 674.52 147 677.51 138.22"/><polygon class="cls-1" points="728.73 132.11 770.76 127.09 768.04 135.62 725.74 140.88 728.73 132.11"/></g></g></svg>