<svg id="Capa_1" data-name="Capa 1" xmlns="http://www.w3.org/2000/svg" viewBox="0 0 300 300"><defs><style>.cls-1,.cls-2{fill:#5d5760;}.cls-2{isolation:isolate;font-size:59.05px;font-family:Poppins-BoldItalic, Poppins;font-weight:700;font-style:italic;}</style></defs><path id="Trazado_1021" data-name="Trazado 1021" class="cls-1" d="M254.72,104.05A106.76,106.76,0,0,0,78.34,39.27,104.31,104.31,0,0,0,43,117.36a102.79,102.79,0,0,0,21.4,63.05,21.36,21.36,0,0,0,16.91,8.22h136a21.29,21.29,0,0,0,16.87-8.17A103.67,103.67,0,0,0,254.72,104.05ZM130,180.23l5.1-12.58h28.26l5.1,12.58Zm97.31-4.84a12.72,12.72,0,0,1-10.09,4.84h-39.6l-7.44-18.31a4.27,4.27,0,0,0-3.95-2.64h-34a4.27,4.27,0,0,0-4,2.64l-7.43,18.31H81.29a12.75,12.75,0,0,1-10.13-4.88,94.71,94.71,0,0,1-19.69-58A96,96,0,0,1,84,45.5,98.22,98.22,0,0,1,246.3,105.07a95.43,95.43,0,0,1-19,70.31Z"/><path id="Trazado_1022" data-name="Trazado 1022" class="cls-1" d="M149.25,45.87a72.13,72.13,0,0,0-72.71,71.36,70.21,70.21,0,0,0,21.29,50.46,4.32,4.32,0,0,0,6,0l9.07-8.9a4.14,4.14,0,0,0,.09-5.85l-.09-.09a4.32,4.32,0,0,0-6,0l-6,5.84a61.8,61.8,0,0,1-15.67-37.26h8.36a4.2,4.2,0,1,0,0-8.4H85.3A62,62,0,0,1,101,75.83l5.9,5.77a4.32,4.32,0,0,0,6,0,4.13,4.13,0,0,0,.06-5.84L113,75.7l-5.9-5.78A64.44,64.44,0,0,1,145,54.5v8.18a4.28,4.28,0,0,0,8.55,0h0V54.5a64.5,64.5,0,0,1,37.91,15.42l-5.91,5.78a4.13,4.13,0,0,0-.06,5.84l.06.06a4.32,4.32,0,0,0,6,0l5.91-5.77A62,62,0,0,1,213.19,113h-8.33a4.25,4.25,0,0,0-4.29,4.2h0a4.25,4.25,0,0,0,4.28,4.2h8.37a61.81,61.81,0,0,1-15.68,37.26l-5.95-5.84a4.33,4.33,0,0,0-6.05,0,4.14,4.14,0,0,0-.09,5.85l.09.09,9.07,8.9a4.32,4.32,0,0,0,6,0A70.22,70.22,0,0,0,222,117.23,72.13,72.13,0,0,0,149.25,45.87Z"/><path id="Trazado_1023" data-name="Trazado 1023" class="cls-1" d="M173.11,87.66,157.81,103a17.23,17.23,0,0,0-20.32,2.52,16.62,16.62,0,0,0-2.56,20.35l-3.39,3.39a4.2,4.2,0,0,0,0,5.94h0a4.2,4.2,0,0,0,5.94,0h0l3.39-3.39a16.71,16.71,0,0,0,22.9-22.9L179.05,93.6a4.2,4.2,0,0,0-5.94-5.95ZM155.3,123.27a8.59,8.59,0,0,1-11.88,0,8.39,8.39,0,0,1,0-11.86h0a8.39,8.39,0,0,1,11.86,0h0a8.4,8.4,0,0,1,0,11.86h0Z"/><g id="_A_Rodar_" data-name=" A Rodar "><text class="cls-2" transform="translate(6.54 253.74)">¡A Rodar!</text></g></svg>