<svg id="Capa_1" data-name="Capa 1" xmlns="http://www.w3.org/2000/svg" viewBox="0 0 300 300"><defs><style>.cls-1,.cls-2{fill:#5d5760;}.cls-2{isolation:isolate;font-size:59.05px;font-family:Poppins-BoldItalic, Poppins;font-weight:700;font-style:italic;}</style></defs><path id="Trazado_1026" data-name="Trazado 1026" class="cls-1" d="M201.29,100.59H182.38a69.53,69.53,0,0,0,15.39-42.26A43.36,43.36,0,0,0,157,12.55a46.52,46.52,0,0,0-5,0,43.35,43.35,0,0,0-45.78,40.77,41.87,41.87,0,0,0,0,5,69.52,69.52,0,0,0,15.38,42.26H102.7a24.69,24.69,0,0,0-24.65,24.65v52.83a10.58,10.58,0,0,0,10.57,10.56H215.4A10.58,10.58,0,0,0,226,178.07V125.24A24.69,24.69,0,0,0,201.29,100.59Zm-62.78,6.21,3.66-15.28a70.44,70.44,0,0,0,19.67,0l3.66,15.28A23.11,23.11,0,0,1,138.51,106.8Zm33.1-4.75-2.83-11.8a74.2,74.2,0,0,0,15.43-5.48,60,60,0,0,1-12.62,17.28Zm19.13-43.72a56.76,56.76,0,0,1-2.47,16.06,66.6,66.6,0,0,1-72.53,0,56.76,56.76,0,0,1-2.47-16.06,49.69,49.69,0,0,1,.7-8.43,74.16,74.16,0,0,0,76.08,0,49.68,49.68,0,0,1,.69,8.43ZM135.23,90.26l-2.82,11.79a60,60,0,0,1-12.6-17.28,74.64,74.64,0,0,0,15.41,5.49Zm27.22-69.52a10.51,10.51,0,0,1-20.9,0,48.05,48.05,0,0,1,20.9,0ZM134.73,22.9a17.6,17.6,0,0,0,34.55,0,33.59,33.59,0,0,1,18.86,19.86,67.13,67.13,0,0,1-72.26,0,33.58,33.58,0,0,1,18.84-19.84ZM85.09,178.07V125.25a17.64,17.64,0,0,1,17.61-17.61h25.51a38.71,38.71,0,0,0,20.27,10.28V181.6h-17.6V156.94a3.54,3.54,0,0,0-1.32-2.75l-16.29-13v-8.87a3.52,3.52,0,0,0-3.51-3.53h0a3.52,3.52,0,0,0-3.52,3.51v49.32H88.62a3.52,3.52,0,0,1-3.53-3.51Zm28.18-27.88,10.56,8.45v23H113.27Zm77.47,31.41H180.18v-23l10.56-8.45Zm28.18-3.53a3.53,3.53,0,0,1-3.52,3.53H197.79V132.29a3.51,3.51,0,0,0-3.51-3.52h0a3.52,3.52,0,0,0-3.52,3.52h0v8.87l-16.28,13a3.54,3.54,0,0,0-1.33,2.76V181.6h-17.6V118a38.86,38.86,0,0,0,20.27-10.28h25.51a17.62,17.62,0,0,1,17.61,17.6Z"/><g id="Perfil"><text class="cls-2" transform="translate(72.78 253.75)">Perfil</text></g></svg>