<svg id="Capa_1" data-name="Capa 1" xmlns="http://www.w3.org/2000/svg" viewBox="0 0 300 300"><defs><style>.cls-1,.cls-2{fill:#d92d16;}.cls-2{isolation:isolate;font-size:59.05px;font-family:Poppins-BoldItalic, Poppins;font-weight:700;font-style:italic;}</style></defs><path id="Trazado_1024" data-name="Trazado 1024" class="cls-1" d="M121.71,55.6A14.41,14.41,0,1,0,107.3,70,14.41,14.41,0,0,0,121.71,55.6Zm-21.57,0a7.19,7.19,0,1,1,7.19,7.19A7.2,7.2,0,0,1,100.14,55.6Z"/><path id="Trazado_1025" data-name="Trazado 1025" class="cls-1" d="M150.46,16.07a87.07,87.07,0,0,0-21,2.62,42.76,42.76,0,0,0-22.19-6.21A43.21,43.21,0,0,0,64.18,55.62a59.38,59.38,0,0,0,4,20.92,86.25,86.25,0,1,0,82.28-60.47ZM202.65,43a78.65,78.65,0,0,1-18.86,12.36,77.06,77.06,0,0,0-15.2-30A78.75,78.75,0,0,1,202.65,43ZM154.06,98.76V69.83a86.49,86.49,0,0,0,24.81-4.72,170,170,0,0,1,3.91,33.64ZM182.78,106a169.87,169.87,0,0,1-3.91,33.64,86.14,86.14,0,0,0-24.81-4.71V106ZM150.46,23.27c10.9,0,20.74,14,26.63,34.85a79,79,0,0,1-26.63,4.69,2.77,2.77,0,0,0-.5.1,53.9,53.9,0,0,0,.5-7.29,43,43,0,0,0-13.39-31.17,79.08,79.08,0,0,1,13.39-1.2ZM128,106h18.85v28.93a86.14,86.14,0,0,0-24.77,4.7,161,161,0,0,1-3.46-24c2.84-2.64,6.09-5.86,9.4-9.59Zm5.91-7.19a88.43,88.43,0,0,0,12.95-23.28V98.76ZM107.3,19.68a36,36,0,0,1,36,36c0,29-27.94,53.67-35.95,60.14-8-6.46-35.94-31.11-35.94-60.14a36,36,0,0,1,36-36ZM71.35,102.35a79,79,0,0,1,1.59-15.48,124.76,124.76,0,0,0,32.27,36.36,3.57,3.57,0,0,0,4.22,0c.22-.15,1.1-.8,2.44-1.88a162.68,162.68,0,0,0,3.46,20.92,86,86,0,0,0-22.22,14.44,78.79,78.79,0,0,1-21.73-54.38Zm26.9,59.34a79.17,79.17,0,0,1,18.89-12.37,77.16,77.16,0,0,0,15.25,30,78.77,78.77,0,0,1-34.11-17.65Zm52.19,19.74c-10.68,0-20.63-13.92-26.6-34.86a77.94,77.94,0,0,1,53.23,0c-5.87,20.85-15.71,34.84-26.61,34.84Zm18.13-2.12a77.33,77.33,0,0,0,15.2-30,79.13,79.13,0,0,1,18.85,12.37,79,79,0,0,1-34,17.58Zm39.24-22.61a86.06,86.06,0,0,0-22.19-14.4A176.45,176.45,0,0,0,190,102.37a176.39,176.39,0,0,0-4.36-39.93A86.09,86.09,0,0,0,207.81,48a78.86,78.86,0,0,1,0,108.65Z"/><g id="Rutas"><text class="cls-2" transform="translate(62.57 253.28)">Rutas</text></g></svg>