<svg id="Capa_1" data-name="Capa 1" xmlns="http://www.w3.org/2000/svg" viewBox="0 0 300 300"><defs><style>.cls-1,.cls-2{fill:#d92d16;}.cls-2{isolation:isolate;font-size:59.05px;font-family:Poppins-BoldItalic, Poppins;font-weight:700;font-style:italic;}</style></defs><path id="Categories" class="cls-1" d="M186.23,188.63a27.18,27.18,0,0,1-26.65-27.31v-26.6a27,27,0,0,1,26.65-27.2H212.3a27.17,27.17,0,0,1,26.77,27.2v26.6a27.3,27.3,0,0,1-26.73,27.31Zm-12.35-53.91v26.6a12.74,12.74,0,0,0,3.59,8.94,12.18,12.18,0,0,0,8.67,3.66h26.24a12.17,12.17,0,0,0,8.66-3.66,12.74,12.74,0,0,0,3.59-8.94v-26.6a12.63,12.63,0,0,0-3.61-8.91,12.1,12.1,0,0,0-8.72-3.69H186.2a12.5,12.5,0,0,0-12.31,12.61ZM89.65,188.55a27.6,27.6,0,0,1-26.72-27.29V134.74a27.53,27.53,0,0,1,7.83-19.27,26.41,26.41,0,0,1,18.89-7.93h10.71a7.17,7.17,0,0,1,6.86,3.41,7.49,7.49,0,0,1,0,7.8,7.18,7.18,0,0,1-6.86,3.4H89.65a12.54,12.54,0,0,0-12.41,12.6V161a12.79,12.79,0,0,0,12.41,12.6h26.24a12.29,12.29,0,0,0,8.82-3.66,12.77,12.77,0,0,0,3.64-8.94V121.55a7.41,7.41,0,0,1,3.22-7.54,7.08,7.08,0,0,1,8.05.24A7.42,7.42,0,0,1,142.4,122v39.3a27,27,0,0,1-26.71,27.31h-26Zm112.2-94.69a7.36,7.36,0,0,1,0-14.61h10.46a12.23,12.23,0,0,0,8.82-3.79,12.77,12.77,0,0,0,3.53-9.06V39.8a12.62,12.62,0,0,0-12.35-12.59H186.2A12.47,12.47,0,0,0,173.85,39.8h0V79.62a7.35,7.35,0,0,1-7.35,7.18,7.11,7.11,0,0,1-5-2.27,7.41,7.41,0,0,1-1.94-5.24V39.81a27.5,27.5,0,0,1,7.78-19.29,26.35,26.35,0,0,1,18.91-8H212.3A27.6,27.6,0,0,1,239,39.78V66.31a27.56,27.56,0,0,1-7.58,19.37,26.38,26.38,0,0,1-18.72,8.17Zm-86.09-.25H89.65A27.18,27.18,0,0,1,62.93,66.38V39.78a27.29,27.29,0,0,1,26.74-27.3h26.11a27.15,27.15,0,0,1,26.69,27.3v26.6a27.58,27.58,0,0,1-7.84,19.27,26.12,26.12,0,0,1-18.82,7.93Zm-35-62.82a12.75,12.75,0,0,0-3.7,9v26.6a12.77,12.77,0,0,0,3.61,9.16,12.29,12.29,0,0,0,8.72,3.68h26.36a12.39,12.39,0,0,0,8.82-3.79,12.81,12.81,0,0,0,3.53-9V39.81A12.59,12.59,0,0,0,115.75,27.2H89.39a12.14,12.14,0,0,0-8.61,3.56Z"/><g id="Más"><text class="cls-2" transform="translate(87.34 254.23)">Más</text></g></svg>