<svg xmlns="http://www.w3.org/2000/svg" viewBox="0 0 122.04 122.04"><defs><style>.cls-1{fill:#fff;}</style></defs><g id="Capa_2" data-name="Capa 2"><g id="Capa_1-2" data-name="Capa 1"><path id="Icon_awesome-link" data-name="Icon awesome-link" class="cls-1" d="M77.86,44.19A36.19,36.19,0,0,1,78,95.32l-.09.09-16,16A36.23,36.23,0,0,1,10.61,60.19h0l8.86-8.83A3.82,3.82,0,0,1,26,53.92a43.8,43.8,0,0,0,2.3,12.57,3.84,3.84,0,0,1-.9,4l-3.12,3.11A17.16,17.16,0,0,0,47.55,98.77c.28-.27.55-.54.82-.82l16-16a17.15,17.15,0,0,0,0-24.26h0a18.59,18.59,0,0,0-2.47-2,3.82,3.82,0,0,1-1.66-3,9.51,9.51,0,0,1,2.79-7.1l5-5a3.82,3.82,0,0,1,4.9-.41A35.53,35.53,0,0,1,77.86,44.19ZM111.45,10.6a36.27,36.27,0,0,0-51.24,0l-16,16-.09.09a36.2,36.2,0,0,0,5,55.23,3.82,3.82,0,0,0,4.9-.41l5-5a9.48,9.48,0,0,0,2.79-7.1,3.82,3.82,0,0,0-1.66-3,18.59,18.59,0,0,1-2.47-2,17.15,17.15,0,0,1,0-24.26h0l16-16A17.16,17.16,0,0,1,98,48.3l-.21.2L94.7,51.62a3.82,3.82,0,0,0-.91,4A44,44,0,0,1,96.1,68.14a3.8,3.8,0,0,0,6.5,2.56l8.84-8.83a36.25,36.25,0,0,0,0-51.24Z"/></g></g></svg>