<svg xmlns="http://www.w3.org/2000/svg" viewBox="0 0 150.92 109.05"><defs><style>.cls-1{fill:#fff;}</style></defs><g id="Capa_2" data-name="Capa 2"><g id="Capa_1-2" data-name="Capa 1"><g id="Trazado_1041" data-name="Trazado 1041"><path class="cls-1" d="M75.46,109.05c-4.58,0-45-.08-56.38-3.11A23,23,0,0,1,3.14,90.18L3,89.7A191.66,191.66,0,0,1,0,54.64,192.2,192.2,0,0,1,3,19.9l.07-.33A22.89,22.89,0,0,1,19,3.16C30.41.11,70.88,0,75.46,0a468.14,468.14,0,0,1,55.63,2.72l.41,0,.41.11a22.89,22.89,0,0,1,15.91,16.41l.15.78a191.29,191.29,0,0,1,2.95,34.61,191.08,191.08,0,0,1-3,34.48l-.07.33a22.89,22.89,0,0,1-15.91,16.41C120.51,109,80,109.05,75.46,109.05ZM12.82,87.66a12.9,12.9,0,0,0,8.88,8.62c8.48,2.28,41.69,2.77,53.76,2.77s45.28-.5,53.79-2.77a12.83,12.83,0,0,0,8.83-9,181.14,181.14,0,0,0,2.84-32.54,181.59,181.59,0,0,0-2.84-33.11,12.85,12.85,0,0,0-8.53-8.94,457.81,457.81,0,0,0-54-2.61c-12.14,0-45.34.5-53.85,2.78a12.8,12.8,0,0,0-8.83,9A181.2,181.2,0,0,0,10,54.65,182.27,182.27,0,0,0,12.82,87.66Z"/></g><g id="Trazado_1042" data-name="Trazado 1042"><path class="cls-1" d="M56,84.21V25.13l52,29.51Zm10-41.9V67L87.76,54.65Z"/></g></g></g></svg>